<?xml version="1.0" encoding="UTF-8" standalone="no"?>
<svg
   xmlns:dc="http://purl.org/dc/elements/1.1/"
   xmlns:cc="http://creativecommons.org/ns#"
   xmlns:rdf="http://www.w3.org/1999/02/22-rdf-syntax-ns#"
   xmlns:svg="http://www.w3.org/2000/svg"
   xmlns="http://www.w3.org/2000/svg"
   viewBox="0 0 398.58667 398.58667"
   height="398.58667"
   width="398.58667"
   xml:space="preserve"
   id="svg2"
   version="1.1"><metadata
     id="metadata8"><rdf:RDF><cc:Work
         rdf:about=""><dc:format>image/svg+xml</dc:format><dc:type
           rdf:resource="http://purl.org/dc/dcmitype/StillImage" /></cc:Work></rdf:RDF></metadata><defs
     id="defs6" /><g
     transform="matrix(1.3333333,0,0,-1.3333333,0,398.58667)"
     id="g10"><g
       transform="scale(0.1)"
       id="g12"><path
         id="path14"
         style="fill:#ffffff;fill-opacity:1;fill-rule:nonzero;stroke:none"
         d="M 2976.96,1494.68 C 2976.96,676.059 2313.32,12.4492 1494.7,12.4492 676.086,12.4492 12.457,676.059 12.457,1494.68 c 0,818.63 663.629,1482.25 1482.243,1482.25 818.62,0 1482.26,-663.62 1482.26,-1482.25" /><path
         id="path16"
         style="fill:none;stroke:#1d4e9e;stroke-width:24.91200066;stroke-linecap:butt;stroke-linejoin:miter;stroke-miterlimit:4;stroke-dasharray:none;stroke-opacity:1"
         d="M 2976.96,1494.68 C 2976.96,676.059 2313.32,12.4492 1494.7,12.4492 676.086,12.4492 12.457,676.059 12.457,1494.68 c 0,818.63 663.629,1482.25 1482.243,1482.25 818.62,0 1482.26,-663.62 1482.26,-1482.25 z" /><path
         id="path18"
         style="fill:#1d4e9e;fill-opacity:1;fill-rule:nonzero;stroke:none"
         d="m 1025.07,918.699 -37.968,37.231 c -7.618,7.461 -19.844,7.34 -27.305,-0.282 -7.461,-7.609 -7.344,-19.839 0.281,-27.296 l 37.961,-37.231" /><path
         id="path20"
         style="fill:#1d4e9e;fill-opacity:1;fill-rule:nonzero;stroke:none"
         d="m 985.188,877.352 -30.723,30.117 -57.559,-65.231 c 0,0 15.703,47.203 -26.289,79.864 10.703,-29.731 12.781,-57.383 -15.664,-87.114 -28.457,-29.75 -59.863,-74.359 -20.93,-111.816" /><path
         id="path22"
         style="fill:#1d4e9e;fill-opacity:1;fill-rule:nonzero;stroke:none"
         d="m 1972.69,1881.48 -114.04,111.8 c -11.62,11.39 -30.28,11.2 -41.68,-0.43 -11.38,-11.6 -11.19,-30.28 0.42,-41.66 l 114.03,-111.79" /><path
         id="path24"
         style="fill:#1d4e9e;fill-opacity:1;fill-rule:nonzero;stroke:none"
         d="m 1862.57,1768.89 -66.29,64.97 c -11.62,11.39 -30.28,11.21 -41.67,-0.41 -11.39,-11.63 -11.2,-30.29 0.42,-41.68 l 66.27,-64.97" /><path
         id="path26"
         style="fill:#1d4e9e;fill-opacity:1;fill-rule:nonzero;stroke:none"
         d="m 1876.82,1783.43 -81.27,79.67 34.5,42.94 85.14,-83.46" /><path
         id="path28"
         style="fill:#1d4e9e;fill-opacity:1;fill-rule:nonzero;stroke:none"
         d="m 1873.27,1646.27 -802.81,-746.942 -66.44,65.133 736.52,811.919" /><path
         id="path30"
         style="fill:#1d4e9e;fill-opacity:1;fill-rule:nonzero;stroke:none"
         d="m 1024.29,919.461 37.97,-37.223 c 7.62,-7.457 7.74,-19.687 0.27,-27.308 -7.46,-7.602 -19.68,-7.731 -27.29,-0.27 l -37.982,37.238" /><path
         id="path32"
         style="fill:#1d4e9e;fill-opacity:1;fill-rule:nonzero;stroke:none"
         d="m 984.387,878.129 30.723,-30.109 -64.083,-58.829 c 0,0 46.914,16.618 80.373,-24.711 -29.92,10.098 -57.599,11.641 -86.779,-17.402 -29.16,-29.039 -73.164,-61.308 -111.367,-23.137" /><path
         id="path34"
         style="fill:#1d4e9e;fill-opacity:1;fill-rule:nonzero;stroke:none"
         d="m 1972.14,1882.01 114.05,-111.79 c 11.62,-11.4 11.79,-30.05 0.41,-41.67 -11.39,-11.62 -30.06,-11.82 -41.67,-0.42 l -114.02,111.79" /><path
         id="path36"
         style="fill:#1d4e9e;fill-opacity:1;fill-rule:nonzero;stroke:none"
         d="m 1861.77,1769.66 66.27,-64.97 c 11.62,-11.39 11.81,-30.05 0.41,-41.67 -11.37,-11.62 -30.06,-11.8 -41.68,-0.41 l -66.26,64.96" /><path
         id="path38"
         style="fill:#1d4e9e;fill-opacity:1;fill-rule:nonzero;stroke:none"
         d="m 1876.03,1784.2 81.27,-79.65 42.25,35.35 -85.14,83.45" /><path
         id="path40"
         style="fill:#1d4e9e;fill-opacity:1;fill-rule:nonzero;stroke:none"
         d="m 824.641,667.648 c -12.161,-12.437 -32.11,-12.636 -44.532,-0.449 -12.433,12.172 -12.617,32.129 -0.449,44.531 12.188,12.418 32.129,12.641 44.531,0.469 12.442,-12.211 12.625,-32.129 0.45,-44.551" /><path
         id="path42"
         style="fill:#ffffff;fill-opacity:1;fill-rule:nonzero;stroke:none"
         d="m 879.719,734.602 c -9.258,-9.454 -24.414,-9.633 -33.887,-0.352 -9.434,9.281 -9.59,24.43 -0.332,33.879 9.258,9.461 24.434,9.59 33.887,0.359 9.453,-9.277 9.609,-24.457 0.332,-33.886" /><path
         id="path44"
         style="fill:#1d4e9e;fill-opacity:1;fill-rule:nonzero;stroke:none"
         d="m 1967.83,918.699 37.97,37.231 c 7.61,7.461 19.84,7.34 27.3,-0.282 7.46,-7.609 7.34,-19.839 -0.28,-27.296 l -37.96,-37.231" /><path
         id="path46"
         style="fill:#1d4e9e;fill-opacity:1;fill-rule:nonzero;stroke:none"
         d="m 2007.71,877.352 30.72,30.117 57.56,-65.231 c 0,0 -15.7,47.203 26.29,79.864 -10.7,-29.731 -12.78,-57.383 15.66,-87.114 28.46,-29.75 59.87,-74.359 20.93,-111.816" /><path
         id="path48"
         style="fill:#1d4e9e;fill-opacity:1;fill-rule:nonzero;stroke:none"
         d="m 1020.21,1881.48 114.04,111.8 c 11.62,11.39 30.28,11.2 41.68,-0.43 11.38,-11.6 11.19,-30.28 -0.42,-41.66 L 1061.48,1839.4" /><path
         id="path50"
         style="fill:#1d4e9e;fill-opacity:1;fill-rule:nonzero;stroke:none"
         d="m 1130.33,1768.89 66.29,64.97 c 11.62,11.39 30.28,11.21 41.67,-0.41 11.39,-11.63 11.2,-30.29 -0.42,-41.68 l -66.27,-64.97" /><path
         id="path52"
         style="fill:#1d4e9e;fill-opacity:1;fill-rule:nonzero;stroke:none"
         d="m 1116.08,1783.43 81.27,79.67 -34.5,42.94 -85.14,-83.46" /><path
         id="path54"
         style="fill:#1d4e9e;fill-opacity:1;fill-rule:nonzero;stroke:none"
         d="m 1119.63,1646.27 802.81,-746.942 66.44,65.133 -736.52,811.919" /><path
         id="path56"
         style="fill:#1d4e9e;fill-opacity:1;fill-rule:nonzero;stroke:none"
         d="m 1968.61,919.461 -37.97,-37.223 c -7.62,-7.457 -7.73,-19.687 -0.27,-27.308 7.46,-7.602 19.68,-7.731 27.29,-0.27 l 37.98,37.238" /><path
         id="path58"
         style="fill:#1d4e9e;fill-opacity:1;fill-rule:nonzero;stroke:none"
         d="m 2008.51,878.129 -30.72,-30.109 64.08,-58.829 c 0,0 -46.91,16.618 -80.37,-24.711 29.92,10.098 57.6,11.641 86.78,-17.402 29.16,-29.039 73.16,-61.308 111.36,-23.137" /><path
         id="path60"
         style="fill:#1d4e9e;fill-opacity:1;fill-rule:nonzero;stroke:none"
         d="M 1020.76,1882.01 906.711,1770.22 c -11.621,-11.4 -11.797,-30.05 -0.41,-41.67 11.387,-11.62 30.058,-11.82 41.668,-0.42 l 114.021,111.79" /><path
         id="path62"
         style="fill:#1d4e9e;fill-opacity:1;fill-rule:nonzero;stroke:none"
         d="m 1131.13,1769.66 -66.27,-64.97 c -11.62,-11.39 -11.81,-30.05 -0.41,-41.67 11.38,-11.62 30.06,-11.8 41.68,-0.41 l 66.26,64.96" /><path
         id="path64"
         style="fill:#1d4e9e;fill-opacity:1;fill-rule:nonzero;stroke:none"
         d="m 1116.87,1784.2 -81.27,-79.65 -42.248,35.35 85.138,83.45" /><path
         id="path66"
         style="fill:#1d4e9e;fill-opacity:1;fill-rule:nonzero;stroke:none"
         d="m 2168.26,667.648 c 12.16,-12.437 32.11,-12.636 44.53,-0.449 12.43,12.172 12.62,32.129 0.45,44.531 -12.19,12.418 -32.13,12.641 -44.53,0.469 -12.45,-12.211 -12.63,-32.129 -0.45,-44.551" /><path
         id="path68"
         style="fill:#ffffff;fill-opacity:1;fill-rule:nonzero;stroke:none"
         d="m 2113.18,734.602 c 9.26,-9.454 24.41,-9.633 33.89,-0.352 9.43,9.281 9.59,24.43 0.33,33.879 -9.26,9.461 -24.44,9.59 -33.89,0.359 -9.45,-9.277 -9.61,-24.457 -0.33,-33.886" /><path
         id="path70"
         style="fill:#231f20;fill-opacity:1;fill-rule:nonzero;stroke:none"
         d="m 1333.75,783.84 c -3.16,-3.731 -10.34,-10.309 -19.09,-24.449 -6.95,-11.243 -8.49,-17.082 -10.56,-22.762 -3.67,-9.957 -2.12,-21 2.16,-31.719 2.94,-7.379 9.01,-13.711 16.35,-16.969 16.31,-7.211 39.47,-8.812 44.97,6.231 3.89,10.609 -18.51,14.488 -24.17,30.367 -4.2,11.801 8.47,23.012 19.49,23.172 15.44,0.187 36.28,-33.441 27.2,-58.32 -10.74,-29.321 -45.26,-41.571 -76.94,-27.313 -18.27,8.203 -33.03,22.481 -41.58,40.231 -8.53,17.761 -9.83,36.82 -3.66,53.742 1.49,4 2.72,7.98 3.79,11.89 l -0.39,-0.14 c -5.09,-2.34 -10.48,-4.672 -16.02,-7.09 -16.71,-7.281 -36.14,-7.402 -54.77,-0.313 -18.62,7.09 -34.19,20.512 -43.86,37.832 -16.75,30.02 -6.83,64.77 22.14,77.418 24.58,10.731 60.22,-7.277 61.15,-22.457 0.66,-10.8 -9.81,-24.019 -22.09,-20.761 -16.52,4.379 -22.08,26.058 -32.56,21.492 -14.88,-6.492 -11.66,-29.121 -3.06,-44.524 5.7,-10.226 13.74,-17.199 24.76,-21.378 7.54,-2.848 15.62,-2.579 23.2,0.761 5.82,2.578 11.56,6.93 16.04,11.11 0.44,0.41 2.48,2.48 3.08,3.23 7.8,9.508 20.08,34.328 20.08,34.328 40.53,111.25 -90.96,199.961 -90.96,199.961 -24.09,20.47 -52.87,36.62 -84.39,46.94 -18.47,5.99 -24.63,1.5 -26.29,-0.39 -0.38,-0.43 -0.97,-1.41 -0.97,-1.41 l -24.95,-37.36 c 0,0 -1.05,-1.39 -1.25,-1.59 -4.43,-4.29 -8.09,-5.43 -23.87,-4.61 -24.394,1.27 -48.144,5.73 -70.304,13.21 -130.516,44.2 -181.317,183.42 -113.25,310.31 l 0.176,0.39 c 68.046,126.9 286.588,185.55 404.878,114.84 20.07,-11.99 47.37,-37.93 61.38,-55.31 9.04,-11.21 9.72,-14.37 7.49,-19.49 -0.08,-0.23 -1.01,-1.6 -1.01,-1.6 l -26.56,-34.44 c 0,0 -0.72,-0.84 -0.98,-1.3 -1.15,-2.04 -2.7,-8.5 13.2,-19.48 54.51,-37.42 127.97,-56.64 199.63,-51.68 l 0.12,-88 c -96.37,-6.7 -191.17,17.63 -266.97,68.47 0,0 -39.22,25.61 -40.14,50.2 -0.9,24.61 20.11,-3.64 34.22,-10.67 9.08,-3.08 13.76,16.68 10.6,28.42 -0.21,0.8 -1.27,3.44 -1.56,4.03 -8.84,19.1 -32.15,43.88 -52.85,56.24 -73.91,44.18 -210.159,9.03 -252.698,-70.29 l -0.176,-0.39 c -42.539,-79.32 -10.793,-166.33 70.789,-193.94 22.885,-7.76 48.995,-10.92 73.045,-7.46 0.69,0.07 3.17,0.52 3.73,0.66 13.85,3.34 33.85,17.58 26.5,22.81 -13.52,6.7 -52.42,7.48 -26.03,19.57 26.38,12.09 70.38,-3.44 70.38,-3.44 40.11,-13.59 75.95,-33.16 106.31,-57.65 0,0 210.69,-186.922 87.1,-329.16" /><path
         id="path72"
         style="fill:none;stroke:#ffffff;stroke-width:40;stroke-linecap:butt;stroke-linejoin:miter;stroke-miterlimit:4;stroke-dasharray:none;stroke-opacity:1"
         d="m 1333.75,783.84 c -3.16,-3.731 -10.34,-10.309 -19.09,-24.449 -6.95,-11.243 -8.49,-17.082 -10.56,-22.762 -3.67,-9.957 -2.12,-21 2.16,-31.719 2.94,-7.379 9.01,-13.711 16.35,-16.969 16.31,-7.211 39.47,-8.812 44.97,6.231 3.89,10.609 -18.51,14.488 -24.17,30.367 -4.2,11.801 8.47,23.012 19.49,23.172 15.44,0.187 36.28,-33.441 27.2,-58.32 -10.74,-29.321 -45.26,-41.571 -76.94,-27.313 -18.27,8.203 -33.03,22.481 -41.58,40.231 -8.53,17.761 -9.83,36.82 -3.66,53.742 1.49,4 2.72,7.98 3.79,11.89 l -0.39,-0.14 c -5.09,-2.34 -10.48,-4.672 -16.02,-7.09 -16.71,-7.281 -36.14,-7.402 -54.77,-0.313 -18.62,7.09 -34.19,20.512 -43.86,37.832 -16.75,30.02 -6.83,64.77 22.14,77.418 24.58,10.731 60.22,-7.277 61.15,-22.457 0.66,-10.8 -9.81,-24.019 -22.09,-20.761 -16.52,4.379 -22.08,26.058 -32.56,21.492 -14.88,-6.492 -11.66,-29.121 -3.06,-44.524 5.7,-10.226 13.74,-17.199 24.76,-21.378 7.54,-2.848 15.62,-2.579 23.2,0.761 5.82,2.578 11.56,6.93 16.04,11.11 0.44,0.41 2.48,2.48 3.08,3.23 7.8,9.508 20.08,34.328 20.08,34.328 40.53,111.25 -90.96,199.961 -90.96,199.961 -24.09,20.47 -52.87,36.62 -84.39,46.94 -18.47,5.99 -24.63,1.5 -26.29,-0.39 -0.38,-0.43 -0.97,-1.41 -0.97,-1.41 l -24.95,-37.36 c 0,0 -1.05,-1.39 -1.25,-1.59 -4.43,-4.29 -8.09,-5.43 -23.87,-4.61 -24.394,1.27 -48.144,5.73 -70.304,13.21 -130.516,44.2 -181.317,183.42 -113.25,310.31 l 0.176,0.39 c 68.046,126.9 286.588,185.55 404.878,114.84 20.07,-11.99 47.37,-37.93 61.38,-55.31 9.04,-11.21 9.72,-14.37 7.49,-19.49 -0.08,-0.23 -1.01,-1.6 -1.01,-1.6 l -26.56,-34.44 c 0,0 -0.72,-0.84 -0.98,-1.3 -1.15,-2.04 -2.7,-8.5 13.2,-19.48 54.51,-37.42 127.97,-56.64 199.63,-51.68 l 0.12,-88 c -96.37,-6.7 -191.17,17.63 -266.97,68.47 0,0 -39.22,25.61 -40.14,50.2 -0.9,24.61 20.11,-3.64 34.22,-10.67 9.08,-3.08 13.76,16.68 10.6,28.42 -0.21,0.8 -1.27,3.44 -1.56,4.03 -8.84,19.1 -32.15,43.88 -52.85,56.24 -73.91,44.18 -210.159,9.03 -252.698,-70.29 l -0.176,-0.39 c -42.539,-79.32 -10.793,-166.33 70.789,-193.94 22.885,-7.76 48.995,-10.92 73.045,-7.46 0.69,0.07 3.17,0.52 3.73,0.66 13.85,3.34 33.85,17.58 26.5,22.81 -13.52,6.7 -52.42,7.48 -26.03,19.57 26.38,12.09 70.38,-3.44 70.38,-3.44 40.11,-13.59 75.95,-33.16 106.31,-57.65 0,0 210.69,-186.922 87.1,-329.16 z" /><path
         id="path74"
         style="fill:#231f20;fill-opacity:1;fill-rule:nonzero;stroke:none"
         d="m 1654.25,783.84 c 3.15,-3.731 10.33,-10.309 19.08,-24.449 6.96,-11.243 8.5,-17.082 10.57,-22.762 3.65,-9.957 2.11,-21 -2.17,-31.719 -2.95,-7.379 -9,-13.711 -16.36,-16.969 -16.31,-7.211 -39.46,-8.812 -44.96,6.231 -3.89,10.609 18.51,14.488 24.17,30.367 4.18,11.801 -8.47,23.012 -19.49,23.172 -15.45,0.187 -36.29,-33.441 -27.2,-58.32 10.74,-29.321 45.26,-41.571 76.95,-27.313 18.26,8.203 33.01,22.481 41.56,40.231 8.54,17.761 9.85,36.82 3.66,53.742 -1.47,4 -2.71,7.98 -3.8,11.89 l 0.42,-0.14 c 5.09,-2.34 10.46,-4.672 16.01,-7.09 16.7,-7.281 36.14,-7.402 54.77,-0.313 18.62,7.09 34.2,20.512 43.85,37.832 16.75,30.02 6.83,64.77 -22.13,77.418 -24.58,10.731 -60.22,-7.277 -61.15,-22.457 -0.66,-10.8 9.82,-24.019 22.1,-20.761 16.51,4.379 22.07,26.058 32.56,21.492 14.87,-6.492 11.66,-29.121 3.05,-44.524 -5.7,-10.226 -13.75,-17.199 -24.75,-21.378 -7.55,-2.848 -15.62,-2.579 -23.22,0.761 -5.8,2.578 -11.56,6.93 -16.03,11.11 -0.46,0.41 -2.48,2.48 -3.08,3.23 -7.81,9.508 -20.07,34.328 -20.07,34.328 -40.53,111.25 90.95,199.961 90.95,199.961 24.09,20.47 52.86,36.62 84.39,46.94 18.47,5.99 24.63,1.5 26.29,-0.39 0.38,-0.43 0.97,-1.41 0.97,-1.41 l 24.95,-37.36 c 0,0 1.05,-1.39 1.25,-1.59 4.44,-4.29 8.08,-5.43 23.87,-4.61 24.39,1.27 48.14,5.73 70.31,13.21 130.51,44.2 181.31,183.42 113.24,310.31 l -0.18,0.39 c -68.04,126.9 -286.59,185.55 -404.87,114.84 -20.07,-11.99 -47.36,-37.93 -61.39,-55.31 -9.03,-11.21 -9.71,-14.37 -7.49,-19.49 0.09,-0.23 1.03,-1.6 1.03,-1.6 l 26.55,-34.44 c 0,0 0.72,-0.84 0.97,-1.3 1.16,-2.04 2.7,-8.5 -13.18,-19.48 -54.52,-37.42 -127.99,-56.64 -199.65,-51.68 l -0.1,-88 c 96.36,-6.7 191.16,17.63 266.96,68.47 0,0 39.23,25.61 40.13,50.2 0.92,24.61 -20.1,-3.64 -34.2,-10.67 -9.1,-3.08 -13.76,16.68 -10.61,28.42 0.2,0.8 1.27,3.44 1.55,4.03 8.84,19.1 32.16,43.88 52.85,56.24 73.92,44.18 210.16,9.03 252.7,-70.29 l 0.18,-0.39 c 42.54,-79.32 10.79,-166.33 -70.79,-193.94 -22.87,-7.76 -49,-10.92 -73.04,-7.46 -0.69,0.07 -3.17,0.52 -3.73,0.66 -13.84,3.34 -33.86,17.58 -26.51,22.81 13.53,6.7 52.44,7.48 26.04,19.57 -26.37,12.09 -70.38,-3.44 -70.38,-3.44 -40.12,-13.59 -75.97,-33.16 -106.31,-57.65 0,0 -210.68,-186.922 -87.09,-329.16" /><path
         id="path76"
         style="fill:none;stroke:#ffffff;stroke-width:40;stroke-linecap:butt;stroke-linejoin:miter;stroke-miterlimit:4;stroke-dasharray:none;stroke-opacity:1"
         d="m 1654.25,783.84 c 3.15,-3.731 10.33,-10.309 19.08,-24.449 6.96,-11.243 8.5,-17.082 10.57,-22.762 3.65,-9.957 2.11,-21 -2.17,-31.719 -2.95,-7.379 -9,-13.711 -16.36,-16.969 -16.31,-7.211 -39.46,-8.812 -44.96,6.231 -3.89,10.609 18.51,14.488 24.17,30.367 4.18,11.801 -8.47,23.012 -19.49,23.172 -15.45,0.187 -36.29,-33.441 -27.2,-58.32 10.74,-29.321 45.26,-41.571 76.95,-27.313 18.26,8.203 33.01,22.481 41.56,40.231 8.54,17.761 9.85,36.82 3.66,53.742 -1.47,4 -2.71,7.98 -3.8,11.89 l 0.42,-0.14 c 5.09,-2.34 10.46,-4.672 16.01,-7.09 16.7,-7.281 36.14,-7.402 54.77,-0.313 18.62,7.09 34.2,20.512 43.85,37.832 16.75,30.02 6.83,64.77 -22.13,77.418 -24.58,10.731 -60.22,-7.277 -61.15,-22.457 -0.66,-10.8 9.82,-24.019 22.1,-20.761 16.51,4.379 22.07,26.058 32.56,21.492 14.87,-6.492 11.66,-29.121 3.05,-44.524 -5.7,-10.226 -13.75,-17.199 -24.75,-21.378 -7.55,-2.848 -15.62,-2.579 -23.22,0.761 -5.8,2.578 -11.56,6.93 -16.03,11.11 -0.46,0.41 -2.48,2.48 -3.08,3.23 -7.81,9.508 -20.07,34.328 -20.07,34.328 -40.53,111.25 90.95,199.961 90.95,199.961 24.09,20.47 52.86,36.62 84.39,46.94 18.47,5.99 24.63,1.5 26.29,-0.39 0.38,-0.43 0.97,-1.41 0.97,-1.41 l 24.95,-37.36 c 0,0 1.05,-1.39 1.25,-1.59 4.44,-4.29 8.08,-5.43 23.87,-4.61 24.39,1.27 48.14,5.73 70.31,13.21 130.51,44.2 181.31,183.42 113.24,310.31 l -0.18,0.39 c -68.04,126.9 -286.59,185.55 -404.87,114.84 -20.07,-11.99 -47.36,-37.93 -61.39,-55.31 -9.03,-11.21 -9.71,-14.37 -7.49,-19.49 0.09,-0.23 1.03,-1.6 1.03,-1.6 l 26.55,-34.44 c 0,0 0.72,-0.84 0.97,-1.3 1.16,-2.04 2.7,-8.5 -13.18,-19.48 -54.52,-37.42 -127.99,-56.64 -199.65,-51.68 l -0.1,-88 c 96.36,-6.7 191.16,17.63 266.96,68.47 0,0 39.23,25.61 40.13,50.2 0.92,24.61 -20.1,-3.64 -34.2,-10.67 -9.1,-3.08 -13.76,16.68 -10.61,28.42 0.2,0.8 1.27,3.44 1.55,4.03 8.84,19.1 32.16,43.88 52.85,56.24 73.92,44.18 210.16,9.03 252.7,-70.29 l 0.18,-0.39 c 42.54,-79.32 10.79,-166.33 -70.79,-193.94 -22.87,-7.76 -49,-10.92 -73.04,-7.46 -0.69,0.07 -3.17,0.52 -3.73,0.66 -13.84,3.34 -33.86,17.58 -26.51,22.81 13.53,6.7 52.44,7.48 26.04,19.57 -26.37,12.09 -70.38,-3.44 -70.38,-3.44 -40.12,-13.59 -75.97,-33.16 -106.31,-57.65 0,0 -210.68,-186.922 -87.09,-329.16 z" /><path
         id="path78"
         style="fill:none;stroke:#1d4e9e;stroke-width:24.00009918;stroke-linecap:butt;stroke-linejoin:miter;stroke-miterlimit:4;stroke-dasharray:none;stroke-opacity:1"
         d="m 2684.71,1484.68 c 0,-657.211 -532.79,-1190 -1190.01,-1190 -657.22,0 -1190.001,532.789 -1190.001,1190 0,657.23 532.781,1190.01 1190.001,1190.01 657.22,0 1190.01,-532.78 1190.01,-1190.01 z" /><path
         id="path80"
         style="fill:#1d4e9e;fill-opacity:1;fill-rule:nonzero;stroke:none"
         d="m 414.035,770.539 c -5.851,9.652 26.516,24.781 4.121,61.723 -7.715,12.726 -22.941,19.777 -38.535,10.316 -34.07,-20.656 22.957,-87.398 -29.375,-119.129 -25.242,-15.308 -56.832,-1.621 -71.144,21.981 -5.223,8.621 -6.95,16.55 -7.68,22.851 -0.524,6.418 -0.254,11.071 -1.75,13.528 -1.492,2.461 -4.496,2.332 -6.922,1.703 l -5.844,9.636 36.321,22.032 3.98,-6.571 c 8.84,-14.57 -26.394,-23.589 -8.602,-52.929 6.719,-11.09 20,-16.782 31.903,-9.571 31.191,18.911 -27.477,84.672 26.09,117.141 29.55,17.922 66.746,2.859 83.672,-25.051 11.195,-18.469 9.164,-33.168 12.273,-38.301 1.621,-2.668 4.215,-2.777 6.805,-1.5 l 7.715,-12.718 -38.176,-23.141 -4.852,8" /><path
         id="path82"
         style="fill:#1d4e9e;fill-opacity:1;fill-rule:nonzero;stroke:none"
         d="m 190.859,1061.97 2.309,-6.05 c 6.242,-16.37 -33.539,-25.89 -20.547,-59.971 12.988,-34.09 54.387,-26.789 81.52,-16.449 33.195,12.648 66.976,39.91 52.023,79.16 -6.754,17.72 -18.141,24.68 -35.859,28.71 l -1.688,0.39 2.848,13.41 c 25.734,-4.83 44.074,-19.93 53.473,-44.6 18.972,-49.79 -3.809,-96.48 -53.372,-115.371 -43.281,-16.5 -91.25,-3.187 -108.683,42.563 -4.957,13.008 -5.516,22.548 -4.992,29.948 0.297,7.3 1.675,12.45 0.218,16.26 -1.195,3.14 -3.191,3.66 -6.222,3.54 l -4.532,11.88 43.504,16.58" /><path
         id="path84"
         style="fill:#1d4e9e;fill-opacity:1;fill-rule:nonzero;stroke:none"
         d="m 98.4922,1232.25 3.5238,0.71 c 15.757,3.22 5.089,-12.92 23.668,-9.13 l 116.398,23.78 c 18.574,3.79 2.434,14.46 18.188,17.68 l 3.531,0.72 13.398,-65.61 -3.527,-0.72 c -15.758,-3.22 -5.094,12.92 -23.668,9.13 l -116.395,-23.78 c -18.578,-3.79 -2.437,-14.45 -18.195,-17.67 l -3.523,-0.72 -13.3988,65.61" /><path
         id="path86"
         style="fill:#1d4e9e;fill-opacity:1;fill-rule:nonzero;stroke:none"
         d="m 152.809,1410.82 -0.727,16.06 c -0.949,20.85 -17.144,7.15 -17.891,23.69 l -0.195,4.32 47.949,2.17 0.293,-6.47 c 0.629,-13.91 -17.527,-5.6 -16.73,-23.1 l 0.726,-16.07 67.375,3.06 -1.816,40.04 c -1.559,34.28 -31.703,15.62 -32.539,34.08 l -0.266,5.76 44.356,2.01 6.094,-134.27 -4.317,-0.19 c -14.863,-0.68 -2.766,13.32 -21.23,12.49 l -118.676,-5.39 c -18.4611,-0.84 -5.145,-13.68 -20.008,-14.36 l -4.3164,-0.19 -4.7851,105.49 c -0.293,6.47 -2.3125,13.83 -6.1602,19.18 l 45.0747,2.04 0.328,-7.19 c 0.644,-14.15 -26.098,-7.19 -24.848,-34.76 l 1.4102,-31.17 60.8988,2.77" /><path
         id="path88"
         style="fill:#1d4e9e;fill-opacity:1;fill-rule:nonzero;stroke:none"
         d="m 196.867,1721.58 -74.363,10.65 c -18.77,2.69 -7.168,-12.79 -23.086,-10.51 l -3.5625,0.51 5.9575,41.57 3.558,-0.51 c 15.918,-2.27 0.473,-13.64 19.242,-16.33 l 142.313,-20.38 -2.453,-17.11 -150.961,-72.2 113.086,-16.2 c 18.769,-2.69 7.402,14.46 23.32,12.18 l 3.562,-0.51 -6.429,-44.9 -3.563,0.51 c -15.918,2.28 -0.23,15.3 -19,17.99 l -117.601,16.84 c -18.7698,2.69 -7.3714,-14.21 -23.2893,-11.93 l -3.5625,0.5 8.1289,56.79 108.7029,53.04" /><path
         id="path90"
         style="fill:#1d4e9e;fill-opacity:1;fill-rule:nonzero;stroke:none"
         d="m 126.305,1884.63 c 5.215,4.03 9.242,10.51 11.371,16.63 l 34.117,98.17 c 2.129,6.12 2.984,13.7 1.395,20.09 l 43.074,-14.97 -2.207,-6.35 c -5.36,-15.42 -24.723,13.68 -38.117,-24.86 l -2.915,-8.39 124.004,-43.1 c 17.911,-6.23 10.028,12.77 25.219,7.49 l 3.399,-1.18 -23.086,-66.43 -3.403,1.19 c -15.187,5.28 2.778,15.29 -15.133,21.52 l -124.003,43.1 -2.915,-8.39 c -13.394,-38.53 19.833,-27.73 14.477,-43.14 l -2.207,-6.35 -43.07,14.97" /><path
         id="path92"
         style="fill:#1d4e9e;fill-opacity:1;fill-rule:nonzero;stroke:none"
         d="m 260.656,2184.86 3.172,-1.7 c 14.16,-7.62 -4.363,-13.19 12.336,-22.17 l 104.633,-56.26 c 16.699,-8.98 11.129,9.55 25.289,1.93 l 3.172,-1.7 -31.715,-58.98 -3.168,1.71 c -14.164,7.61 4.367,13.19 -12.332,22.16 l -104.637,56.26 c -16.699,8.98 -11.125,-9.54 -25.293,-1.93 l -3.168,1.71 31.711,58.97" /><path
         id="path94"
         style="fill:#1d4e9e;fill-opacity:1;fill-rule:nonzero;stroke:none"
         d="m 444.293,2248.43 8.422,-15.37 c 1.812,-3.53 4.426,-8 7.836,-10.65 10.23,-7.95 9.871,12.7 22.566,2.83 l 2.84,-2.21 -30.785,-39.6 -2.844,2.21 c -14.398,11.19 8.211,5.47 -9.984,36.03 l -59.809,100.6 -5.683,1.68 c -1.243,0.36 -7.75,1.77 -9.075,2.8 -2.273,1.77 -0.863,5.54 -0.441,7.64 l 4.941,22 c 0.164,1.39 0.793,4.55 1.825,5.88 1.769,2.27 6.484,0.12 10.402,-1.1 l 144.871,-42.4 c 19.727,-5.9 14.23,12.05 27.68,1.59 l 2.843,-2.21 -44.039,-56.65 -2.847,2.21 c -12.879,10.01 4.312,13.36 -3.832,19.7 -2.274,1.77 -4.571,2.33 -7.391,3.01 l -23.176,6.16 z m -7.813,11.84 29.02,37.33 -62.105,17.88 33.085,-55.21" /><path
         id="path96"
         style="fill:#1d4e9e;fill-opacity:1;fill-rule:nonzero;stroke:none"
         d="m 757.68,2664.54 c -0.547,2.52 -1.703,7.24 -3.184,9.43 -4.426,6.57 -11.547,-6.06 -19.062,5.09 l -2.016,2.98 36.211,24.43 2.012,-2.99 c 8.058,-11.93 -6.879,-7.82 -2.996,-23.44 l 37.054,-152.77 -15.121,-10.2 -129.035,89.56 c -12.625,8.85 -15.289,-3.95 -22.801,7.19 l -2.012,2.98 55.903,37.73 2.683,-3.98 c 6.848,-10.15 -7.785,-11.63 -3.496,-18 0.676,-0.99 7.157,-5.01 8.223,-5.75 l 81.25,-56.06 -23.613,93.8" /><path
         id="path98"
         style="fill:#1d4e9e;fill-opacity:1;fill-rule:nonzero;stroke:none"
         d="m 932.16,2787.35 1.504,-3.27 c 6.727,-14.6 -11.422,-7.9 -3.488,-25.13 l 49.711,-107.9 c 7.937,-17.21 14.636,0.94 21.373,-13.67 l 1.5,-3.27 -60.822,-28.02 -1.504,3.27 c -6.727,14.6 11.421,7.91 3.488,25.13 l -49.711,107.9 c -7.938,17.22 -14.637,-0.93 -21.363,13.67 l -1.504,3.27 60.816,28.02" /><path
         id="path100"
         style="fill:#1d4e9e;fill-opacity:1;fill-rule:nonzero;stroke:none"
         d="m 1196.05,2769.77 -19.66,72.51 c -4.96,18.29 -14.59,1.51 -18.8,17.03 l -0.94,3.48 40.54,11 0.94,-3.48 c 4.21,-15.52 -12.34,-5.84 -7.38,-24.14 l 37.64,-138.74 -16.68,-4.53 -126.08,110.03 29.9,-110.25 c 4.97,-18.3 16.21,-1.08 20.42,-16.59 l 0.94,-3.48 -43.77,-11.88 -0.95,3.48 c -4.21,15.52 13.97,6.27 9,24.57 l -31.1,114.66 c -4.96,18.3 -15.97,1.13 -20.18,16.65 l -0.94,3.48 55.35,15.02 91.75,-78.82" /><path
         id="path102"
         style="fill:#1d4e9e;fill-opacity:1;fill-rule:nonzero;stroke:none"
         d="m 1466.8,2854.68 -6.47,-0.45 c -17.47,-1.23 -15.04,39.6 -51.43,37.06 -36.39,-2.55 -41.41,-44.28 -39.38,-73.25 2.48,-35.44 18.77,-75.68 60.67,-72.74 18.91,1.32 28.88,10.2 37.88,25.99 l 0.85,1.5 12.01,-6.62 c -12.09,-23.22 -31.85,-36.4 -58.19,-38.24 -53.15,-3.72 -91.23,31.63 -94.94,84.54 -3.23,46.21 23.42,88.25 72.26,91.67 13.89,0.97 23.19,-1.26 30.11,-3.91 6.9,-2.4 11.43,-5.21 15.5,-4.93 3.35,0.24 4.43,2 5.18,4.94 l 12.69,0.89 3.26,-46.45" /><path
         id="path104"
         style="fill:#1d4e9e;fill-opacity:1;fill-rule:nonzero;stroke:none"
         d="m 1636.75,2821.14 15.98,-1.83 c 20.75,-2.37 9.77,15.8 26.23,13.92 l 4.29,-0.49 -5.44,-47.69 -6.44,0.73 c -13.83,1.58 -2.76,18.19 -20.16,20.18 l -15.98,1.82 -7.65,-67 39.82,-4.55 c 34.1,-3.89 20.45,28.83 38.81,26.73 l 5.72,-0.65 -5.04,-44.11 -133.53,15.24 0.49,4.29 c 1.69,14.79 13.6,0.63 15.7,18.98 l 13.47,118.04 c 2.09,18.36 -12.7,7.25 -11.01,22.03 l 0.49,4.29 104.92,-11.97 c 6.43,-0.74 14.02,0.08 19.91,3.04 l -5.12,-44.83 -7.15,0.82 c -14.07,1.6 -2.97,26.91 -30.39,30.03 l -31,3.54 -6.92,-60.56" /><path
         id="path106"
         style="fill:#1d4e9e;fill-opacity:1;fill-rule:nonzero;stroke:none"
         d="m 1853.81,2708.04 c -5.49,-17.65 11.12,-9.5 6.69,-23.7 l -1.28,-4.13 -63.47,19.79 1.29,4.12 c 4.42,14.2 13.47,-1.94 18.97,15.7 l 35.35,113.42 c 5.51,17.64 -11.11,9.5 -6.69,23.71 l 1.29,4.12 90.5,-28.21 c 16.5,-5.14 39.94,-23.51 30.87,-52.61 -10,-32.07 -39.38,-31.97 -60.46,-25.4 l -6.19,1.93 -0.14,-0.46 c 17.52,-6.71 20.47,-14.17 24.52,-31.02 l 12.36,-49.86 c 3.38,-13.37 13.86,-6.33 10.15,-18.25 l -1.29,-4.12 -49.94,15.57 -13.69,67.37 c -1.51,7.26 -3.51,20.2 -10.84,22.48 l -2.07,0.65 z m 19.93,63.93 10.77,-3.36 c 13.98,-4.36 33.43,-5.65 41.94,21.62 6.78,21.77 -6.82,33.8 -14.15,36.08 l -19.7,6.15 -18.86,-60.49" /><path
         id="path108"
         style="fill:#1d4e9e;fill-opacity:1;fill-rule:nonzero;stroke:none"
         d="m 2116.54,2676.33 14.18,-7.58 c 18.42,-9.84 14.91,11.09 29.51,3.28 l 3.81,-2.03 -22.62,-42.34 -5.71,3.05 c -12.28,6.56 4.13,17.93 -11.32,26.18 l -14.18,7.58 -31.78,-59.48 35.35,-18.89 c 30.27,-16.17 29.62,19.28 45.92,10.57 l 5.08,-2.72 -20.93,-39.15 -118.54,63.33 2.04,3.81 c 7.01,13.12 12.87,-4.43 21.58,11.87 l 55.98,104.78 c 8.71,16.3 -9.14,11.42 -2.13,24.54 l 2.04,3.81 93.14,-49.76 c 5.72,-3.05 13.07,-5.08 19.63,-4.5 l -21.26,-39.8 -6.35,3.39 c -12.49,6.68 7.15,26.11 -17.19,39.12 l -27.52,14.7 -28.73,-53.76" /><path
         id="path110"
         style="fill:#1d4e9e;fill-opacity:1;fill-rule:nonzero;stroke:none"
         d="m 2459.02,2534.23 c 1.31,-6.46 5.33,-12.94 9.88,-17.55 l 72.9,-74.07 c 4.55,-4.61 10.96,-8.74 17.4,-10.15 l -32.5,-31.99 -4.71,4.8 c -11.45,11.62 23.21,16.1 -5.41,45.18 l -6.23,6.33 -93.56,-92.1 c -13.51,-13.3 7.01,-14.65 -4.45,-25.93 l -2.56,-2.52 -49.34,50.11 2.57,2.52 c 11.46,11.28 12.49,-9.26 26,4.04 l 93.55,92.1 -6.22,6.33 c -28.62,29.08 -33.65,-5.51 -45.1,6.12 l -4.71,4.79 32.49,31.99" /><path
         id="path112"
         style="fill:#1d4e9e;fill-opacity:1;fill-rule:nonzero;stroke:none"
         d="m 2600.52,2248.55 9.03,-13.31 c 11.72,-17.28 18.35,2.89 27.65,-10.81 l 2.42,-3.58 -39.71,-26.96 -3.64,5.36 c -7.82,11.52 12,13.95 2.16,28.44 l -9.04,13.31 -55.79,-37.89 22.51,-33.15 c 19.28,-28.4 35.19,3.29 45.57,-12 l 3.23,-4.77 -36.73,-24.94 -75.49,111.2 3.57,2.43 c 12.31,8.35 9.34,-9.91 24.63,0.47 l 98.29,66.73 c 15.29,10.38 -2.78,14.35 9.53,22.71 l 3.57,2.43 59.31,-87.37 c 3.64,-5.36 9.21,-10.58 15.29,-13.12 l -37.33,-25.34 -4.04,5.96 c -7.96,11.71 18.47,19.79 2.97,42.62 l -17.53,25.81 -50.43,-34.23" /><path
         id="path114"
         style="fill:#1d4e9e;fill-opacity:1;fill-rule:nonzero;stroke:none"
         d="m 2725.23,1960.72 68.99,29.72 c 17.42,7.5 -0.56,14.65 14.21,21.01 l 3.3,1.43 16.62,-38.58 -3.31,-1.43 c -14.77,-6.36 -7.52,11.4 -24.93,3.9 l -132.04,-56.87 -6.83,15.87 91.1,140.37 -104.92,-45.19 c -17.42,-7.5 1.23,-16.19 -13.54,-22.56 l -3.31,-1.42 -17.94,41.66 3.3,1.42 c 14.77,6.37 8.19,-12.94 25.6,-5.44 l 109.11,47 c 17.42,7.5 -1.13,15.98 13.64,22.34 l 3.3,1.42 22.7,-52.68 -65.05,-101.97" /><path
         id="path116"
         style="fill:#1d4e9e;fill-opacity:1;fill-rule:nonzero;stroke:none"
         d="m 2804.65,1785.97 3.45,-15.71 c 4.48,-20.39 18.11,-4.13 21.67,-20.3 l 0.92,-4.22 -46.88,-10.31 -1.39,6.34 c -2.99,13.59 16.32,8.49 12.56,25.61 l -3.46,15.7 -65.87,-14.47 8.6,-39.15 c 7.37,-33.52 33.9,-10 37.86,-28.04 l 1.24,-5.63 -43.36,-9.53 -28.84,131.27 4.22,0.93 c 14.53,3.19 4.99,-12.66 23.04,-8.7 l 116.03,25.49 c 18.06,3.97 2.75,14.36 17.28,17.56 l 4.22,0.93 22.66,-103.14 c 1.39,-6.33 4.63,-13.24 9.32,-17.86 l -44.06,-9.68 -1.55,7.03 c -3.04,13.83 24.5,11.53 18.58,38.48 l -6.7,30.48 -59.54,-13.08" /><path
         id="path118"
         style="fill:#1d4e9e;fill-opacity:1;fill-rule:nonzero;stroke:none"
         d="m 2741.34,1596.4 4.32,0.14 c 14.88,0.46 2.58,-13.37 21.05,-12.79 l 118.74,3.69 c 18.24,0.56 5.35,13.61 20.22,14.07 l 4.32,0.14 2.57,-83.01 c 0.81,-25.91 -6.95,-54.24 -37.66,-55.19 -24.47,-0.76 -38.1,20.66 -40.94,42.66 l -0.48,-0.01 c 0.24,-23.28 -8.91,-53.34 -40.82,-54.33 -41.02,-1.28 -48.01,38.36 -48.79,63.31 z m 15.09,-52.6 0.31,-10.07 c 0.62,-19.91 3.68,-40.95 34.86,-39.97 29.98,0.93 33.54,25.53 33.11,39.44 l -0.4,12.71 z m 81.32,2.53 0.23,-7.43 c 0.53,-17.03 7.07,-34.36 32.02,-33.59 24.95,0.78 28.96,18.44 28.69,27.07 l -0.49,15.83 -60.45,-1.88" /><path
         id="path120"
         style="fill:#1d4e9e;fill-opacity:1;fill-rule:nonzero;stroke:none"
         d="m 2756.21,1301 c -18.25,2.95 -7.83,-12.35 -22.52,-9.97 l -4.27,0.68 10.61,65.63 4.27,-0.68 c 14.69,-2.38 -0.01,-13.62 18.23,-16.57 l 117.28,-18.97 c 18.24,-2.95 7.83,12.35 22.52,9.98 l 4.26,-0.69 -15.13,-93.59 c -2.76,-17.05 -17.63,-42.85 -47.72,-37.99 -33.17,5.37 -37.22,34.47 -33.69,56.26 l 1.03,6.4 -0.47,0.08 c -4.17,-18.29 -11.14,-22.27 -27.25,-28.66 l -47.6,-19.29 C 2723,1208.39 2731.45,1199 2719.13,1201 l -4.27,0.68 8.36,51.66 64.75,23.07 c 6.97,2.52 19.5,6.33 20.73,13.91 l 0.34,2.14 z m 66.1,-10.69 -1.8,-11.14 c -2.34,-14.45 -0.86,-33.89 27.33,-38.45 22.51,-3.64 32.5,11.52 33.72,19.1 l 3.3,20.38 -62.55,10.11" /><path
         id="path122"
         style="fill:#1d4e9e;fill-opacity:1;fill-rule:nonzero;stroke:none"
         d="m 2724.16,1065.46 -12.6,12.18 c -2.78,2.84 -6.59,6.33 -10.63,7.85 -12.13,4.57 -5.67,-15.05 -20.72,-9.38 l -3.37,1.27 17.68,46.94 3.37,-1.27 c 17.07,-6.43 -6.22,-7.66 20.21,-31.46 l 86.91,-78.38 5.93,0.08 c 1.29,0.02 7.92,0.6 9.49,0.01 2.7,-1.01 2.47,-5.03 2.69,-7.17 l 1.79,-22.47 c 0.26,-1.379 0.59,-4.582 0,-6.148 -1.02,-2.703 -6.16,-2.051 -10.26,-2.043 l -150.93,-2.399 c -20.6,-0.191 -10.02,-15.718 -25.97,-9.711 l -3.37,1.27 25.29,67.161 3.37,-1.27 c 15.28,-5.75 -0.16,-14.05 9.5,-17.69 2.69,-1.01 5.05,-0.87 7.95,-0.68 l 23.96,0.98 z m 10.97,-9 -16.66,-44.25 64.6,1.31 -47.94,42.94" /><path
         id="path124"
         style="fill:#1d4e9e;fill-opacity:1;fill-rule:nonzero;stroke:none"
         d="m 2627.98,857.211 c -5.86,-9.641 -34.21,12.098 -56.66,-24.813 -7.73,-12.718 -6.96,-29.468 8.62,-38.949 34.04,-20.699 66.96,60.68 119.25,28.879 25.22,-15.34 27.65,-49.68 13.31,-73.269 -5.24,-8.61 -11.49,-13.797 -16.74,-17.348 -5.45,-3.422 -9.7,-5.332 -11.2,-7.789 -1.49,-2.461 0.02,-5.063 1.69,-6.934 l -5.86,-9.636 -36.3,22.078 4,6.558 c 8.85,14.563 33.1,-12.547 50.93,16.782 6.73,11.07 5.67,25.48 -6.23,32.718 -31.16,18.953 -62.45,-63.429 -115.97,-30.879 -29.52,17.961 -33.32,57.911 -16.36,85.801 11.23,18.449 25.21,23.43 28.33,28.559 1.62,2.672 0.52,5.011 -1.81,6.722 l 7.73,12.707 38.14,-23.187 -4.87,-8" /><path
         id="path126"
         style="fill:#1d4e9e;fill-opacity:1;fill-rule:nonzero;stroke:none"
         d="m 1254.36,262.289 -0.66,-3.539 c -2.96,-15.801 -13.66,0.121 -17.14,-18.52 L 1220.04,152 c -4.55,-24.289 -1.67,-44.121 26.17,-49.328 32.09,-6.0118 42.71,18.129 44.25,26.379 l 18.29,97.668 c 3.48,18.64 -12.25,7.66 -9.29,23.472 l 0.67,3.539 41.04,-7.691 -0.66,-3.527 c -2.96,-15.813 -13.65,0.109 -17.14,-18.532 l -18.28,-97.66 c -5.83,-31.1403 -35.15,-42.988 -70.3,-36.4098 -35.39,6.6211 -61.49,27.6208 -54.69,63.9488 l 17.53,93.661 c 3.49,18.628 -12.24,7.66 -9.28,23.468 l 0.66,3.543 65.35,-12.242" /><path
         id="path128"
         style="fill:#1d4e9e;fill-opacity:1;fill-rule:nonzero;stroke:none"
         d="m 1575,71.0703 -126.47,-1.2305 -0.04,4.3204 c -0.15,14.8789 13.65,2.289 13.47,20.7695 L 1460.8,213.73 c -0.18,18.481 -13.73,5.622 -13.88,20.5 l -0.04,4.321 68.87,0.668 0.05,-4.309 c 0.14,-14.89 -15.58,-2.32 -15.4,-20.801 l 1.28,-130.3082 17.75,0.168 c 54.48,0.5429 29.22,31.2502 50.34,31.4612 l 4.8,0.039 0.43,-44.3987" /><path
         id="path130"
         style="fill:#1d4e9e;fill-opacity:1;fill-rule:nonzero;stroke:none"
         d="m 1709.4,84.75 -0.87,4.2305 c -3,14.5705 12.73,4.8203 9,22.9175 l -23.95,116.372 c -3.67,17.859 -14.32,2.929 -17.32,17.5 l -0.87,4.242 81.33,16.726 c 25.39,5.231 54.64,2.434 60.83,-27.66 4.94,-23.976 -13.84,-41.078 -35.04,-47.637 l 0.1,-0.472 c 22.9,4.222 54.08,0.351 60.52,-30.918 8.27,-40.199 -29.59,-53.871 -54.04,-58.903 z m 32.84,103.551 7.29,1.488 c 16.69,3.441 32.64,12.852 27.61,37.301 -5.04,24.441 -23.12,25.379 -31.58,23.64 l -15.51,-3.199 z m 16.4,-79.699 9.88,2.027 c 19.51,4.019 39.71,10.633 33.42,41.191 -6.05,29.391 -30.9,28.68 -44.53,25.879 l -12.46,-2.57 13.69,-66.527" /><path
         id="path132"
         style="fill:#1d4e9e;fill-opacity:1;fill-rule:nonzero;stroke:none"
         d="m 1113.78,2010.68 c -1.91,-3.05 -6.21,-7.72 -6.21,-7.72 L 892.082,1792.64 c 0,0 -6.379,-6.26 -10.547,-8.67 -8.789,-5.1 -26.504,-11.47 -51.64,-1.78 -16.036,6.19 -60.911,40.49 -55.879,112.85 5.027,72.38 -85.528,58.02 -85.528,58.02 0,0 40.235,66.47 97.071,45.82 45.703,-16.61 74.714,-69.32 74.714,-69.32 0,0 -49.578,37.17 -41.875,114.46 7.707,77.27 -83.484,80.45 -83.484,80.45 0,0 59.473,67.55 122.52,10.32 63.046,-57.24 42.441,-74.03 42.441,-74.03 0,0 10.984,61.29 -24.336,90.9 -12.969,10.89 83.895,-32.95 121.602,-99.31 0,0 -67.578,52.49 -48.926,127.21 14.539,58.28 58.755,82.59 58.755,82.59 0,0 -37.427,-68.74 -6.08,-102.36 31.35,-33.62 66.34,-34.84 110.35,-63.89 36.53,-24.11 11.94,-70.25 2.54,-85.22" /><path
         id="path134"
         style="fill:#ffffff;fill-opacity:1;fill-rule:nonzero;stroke:none"
         d="m 849.719,1836.2 c 0,0 13.594,-17.39 28.25,-7.11 14.66,10.28 19.23,43.74 -10.985,60.52 -30.234,16.81 -49.757,35.64 -49.757,35.64 14.132,-68.03 32.492,-89.05 32.492,-89.05" /><path
         id="path136"
         style="fill:#ffffff;fill-opacity:1;fill-rule:nonzero;stroke:none"
         d="m 982.832,1953.55 c -9.207,18.09 -44.434,77.09 -110.828,71.48 0,0 16.25,-6.49 21.25,-36.61 4.988,-30.11 37.5,-73.87 77.754,-62.49 12.051,3.41 14.629,11.3 14.844,16.77 0.136,3.26 -1.368,7.6 -3.02,10.85" /><path
         id="path138"
         style="fill:#ffffff;fill-opacity:1;fill-rule:nonzero;stroke:none"
         d="m 1001.97,2104.32 c 0,0 74.06,-21.52 59.66,-92.03 -14.41,-70.52 95.57,108.82 -59.66,92.03" /><path
         id="path140"
         style="fill:#1d4e9e;fill-opacity:1;fill-rule:nonzero;stroke:none"
         d="m 1887.77,2010.68 c 1.91,-3.05 6.2,-7.72 6.2,-7.72 l 215.49,-210.32 c 0,0 6.38,-6.26 10.55,-8.67 8.79,-5.1 26.51,-11.47 51.64,-1.78 16.05,6.19 60.91,40.49 55.88,112.85 -5.03,72.38 85.53,58.02 85.53,58.02 0,0 -40.23,66.47 -97.07,45.82 -45.69,-16.61 -74.72,-69.32 -74.72,-69.32 0,0 49.57,37.17 41.88,114.46 -7.71,77.27 83.5,80.45 83.5,80.45 0,0 -59.5,67.55 -122.53,10.32 -63.04,-57.24 -42.44,-74.03 -42.44,-74.03 0,0 -10.99,61.29 24.34,90.9 12.97,10.89 -83.91,-32.95 -121.61,-99.31 0,0 67.57,52.49 48.93,127.21 -14.55,58.28 -58.76,82.59 -58.76,82.59 0,0 37.42,-68.74 6.07,-102.36 -31.34,-33.62 -66.33,-34.84 -110.33,-63.89 -36.54,-24.11 -11.95,-70.25 -2.55,-85.22" /><path
         id="path142"
         style="fill:#ffffff;fill-opacity:1;fill-rule:nonzero;stroke:none"
         d="m 2184.32,1925.25 c 0,0 -19.53,-18.83 -49.74,-35.64 -30.24,-16.78 -25.67,-50.24 -11,-60.52 14.65,-10.28 28.26,7.11 28.26,7.11 0,0 18.36,21.02 32.48,89.05" /><path
         id="path144"
         style="fill:#ffffff;fill-opacity:1;fill-rule:nonzero;stroke:none"
         d="m 2015.69,1942.7 c 0.22,-5.47 2.79,-13.36 14.85,-16.77 40.25,-11.38 72.77,32.38 77.76,62.49 5.01,30.12 21.26,36.61 21.26,36.61 -66.41,5.61 -101.64,-53.39 -110.84,-71.48 -1.64,-3.25 -3.17,-7.59 -3.03,-10.85" /><path
         id="path146"
         style="fill:#ffffff;fill-opacity:1;fill-rule:nonzero;stroke:none"
         d="m 1939.93,2012.29 c -14.41,70.51 59.65,92.03 59.65,92.03 -155.23,16.79 -45.25,-162.55 -59.65,-92.03" /><path
         id="path148"
         style="fill:#1d4e9e;fill-opacity:1;fill-rule:nonzero;stroke:none"
         d="m 1333.75,783.84 c -3.16,-3.731 -10.34,-10.309 -19.09,-24.449 -6.95,-11.243 -8.49,-17.082 -10.56,-22.762 -3.67,-9.957 -2.12,-21 2.16,-31.719 2.94,-7.379 9.01,-13.711 16.35,-16.969 16.31,-7.211 39.47,-8.812 44.97,6.231 3.89,10.609 -18.51,14.488 -24.17,30.367 -4.2,11.801 8.47,23.012 19.49,23.172 15.44,0.187 36.28,-33.441 27.2,-58.32 -10.74,-29.321 -45.26,-41.571 -76.94,-27.313 -18.27,8.203 -33.03,22.481 -41.58,40.231 -8.53,17.761 -9.83,36.82 -3.66,53.742 1.49,4 2.72,7.98 3.79,11.89 l -0.39,-0.14 c -5.09,-2.34 -10.48,-4.672 -16.02,-7.09 -16.71,-7.281 -36.14,-7.402 -54.77,-0.313 -18.62,7.09 -34.19,20.512 -43.86,37.832 -16.75,30.02 -6.83,64.77 22.14,77.418 24.58,10.731 60.22,-7.277 61.15,-22.457 0.66,-10.8 -9.81,-24.019 -22.09,-20.761 -16.52,4.379 -22.08,26.058 -32.56,21.492 -14.88,-6.492 -11.66,-29.121 -3.06,-44.524 5.7,-10.226 13.74,-17.199 24.76,-21.378 7.54,-2.848 15.62,-2.579 23.2,0.761 5.82,2.578 11.56,6.93 16.04,11.11 0.44,0.41 2.48,2.48 3.08,3.23 7.8,9.508 20.08,34.328 20.08,34.328 40.53,111.25 -90.96,199.961 -90.96,199.961 -24.09,20.47 -52.87,36.62 -84.39,46.94 -18.47,5.99 -24.63,1.5 -26.29,-0.39 -0.38,-0.43 -0.97,-1.41 -0.97,-1.41 l -24.95,-37.36 c 0,0 -1.05,-1.39 -1.25,-1.59 -4.43,-4.29 -8.09,-5.43 -23.87,-4.61 -24.394,1.27 -48.144,5.73 -70.304,13.21 -130.516,44.2 -181.317,183.42 -113.25,310.31 l 0.176,0.39 c 68.046,126.9 286.588,185.55 404.878,114.84 20.07,-11.99 47.37,-37.93 61.38,-55.31 9.04,-11.21 9.72,-14.37 7.49,-19.49 -0.08,-0.23 -1.01,-1.6 -1.01,-1.6 l -26.56,-34.44 c 0,0 -0.72,-0.84 -0.98,-1.3 -1.15,-2.04 -2.7,-8.5 13.2,-19.48 54.51,-37.42 127.97,-56.64 199.63,-51.68 l 0.12,-88 c -96.37,-6.7 -191.17,17.63 -266.97,68.47 0,0 -39.22,25.61 -40.14,50.2 -0.9,24.61 20.11,-3.64 34.22,-10.67 9.08,-3.08 13.76,16.68 10.6,28.42 -0.21,0.8 -1.27,3.44 -1.56,4.03 -8.84,19.1 -32.15,43.88 -52.85,56.24 -73.91,44.18 -210.159,9.03 -252.698,-70.29 l -0.176,-0.39 c -42.539,-79.32 -10.793,-166.33 70.789,-193.94 22.885,-7.76 48.995,-10.92 73.045,-7.46 0.69,0.07 3.17,0.52 3.73,0.66 13.85,3.34 33.85,17.58 26.5,22.81 -13.52,6.7 -52.42,7.48 -26.03,19.57 26.38,12.09 70.38,-3.44 70.38,-3.44 40.11,-13.59 75.95,-33.16 106.31,-57.65 0,0 210.69,-186.922 87.1,-329.16" /><path
         id="path150"
         style="fill:#1d4e9e;fill-opacity:1;fill-rule:nonzero;stroke:none"
         d="m 1654.25,783.84 c 3.15,-3.731 10.33,-10.309 19.08,-24.449 6.96,-11.243 8.5,-17.082 10.57,-22.762 3.65,-9.957 2.11,-21 -2.17,-31.719 -2.95,-7.379 -9,-13.711 -16.36,-16.969 -16.31,-7.211 -39.46,-8.812 -44.96,6.231 -3.89,10.609 18.51,14.488 24.17,30.367 4.18,11.801 -8.47,23.012 -19.49,23.172 -15.45,0.187 -36.29,-33.441 -27.2,-58.32 10.74,-29.321 45.26,-41.571 76.95,-27.313 18.26,8.203 33.01,22.481 41.56,40.231 8.54,17.761 9.85,36.82 3.66,53.742 -1.47,4 -2.71,7.98 -3.8,11.89 l 0.42,-0.14 c 5.09,-2.34 10.46,-4.672 16.01,-7.09 16.7,-7.281 36.14,-7.402 54.77,-0.313 18.62,7.09 34.2,20.512 43.85,37.832 16.75,30.02 6.83,64.77 -22.13,77.418 -24.58,10.731 -60.22,-7.277 -61.15,-22.457 -0.66,-10.8 9.82,-24.019 22.1,-20.761 16.51,4.379 22.07,26.058 32.56,21.492 14.87,-6.492 11.66,-29.121 3.05,-44.524 -5.7,-10.226 -13.75,-17.199 -24.75,-21.378 -7.55,-2.848 -15.62,-2.579 -23.22,0.761 -5.8,2.578 -11.56,6.93 -16.03,11.11 -0.46,0.41 -2.48,2.48 -3.08,3.23 -7.81,9.508 -20.07,34.328 -20.07,34.328 -40.53,111.25 90.95,199.961 90.95,199.961 24.09,20.47 52.86,36.62 84.39,46.94 18.47,5.99 24.63,1.5 26.29,-0.39 0.38,-0.43 0.97,-1.41 0.97,-1.41 l 24.95,-37.36 c 0,0 1.05,-1.39 1.25,-1.59 4.44,-4.29 8.08,-5.43 23.87,-4.61 24.39,1.27 48.14,5.73 70.31,13.21 130.51,44.2 181.31,183.42 113.24,310.31 l -0.18,0.39 c -68.04,126.9 -286.59,185.55 -404.87,114.84 -20.07,-11.99 -47.36,-37.93 -61.39,-55.31 -9.03,-11.21 -9.71,-14.37 -7.49,-19.49 0.09,-0.23 1.03,-1.6 1.03,-1.6 l 26.55,-34.44 c 0,0 0.72,-0.84 0.97,-1.3 1.16,-2.04 2.7,-8.5 -13.18,-19.48 -54.52,-37.42 -127.99,-56.64 -199.65,-51.68 l -0.1,-88 c 96.36,-6.7 191.16,17.63 266.96,68.47 0,0 39.23,25.61 40.13,50.2 0.92,24.61 -20.1,-3.64 -34.2,-10.67 -9.1,-3.08 -13.76,16.68 -10.61,28.42 0.2,0.8 1.27,3.44 1.55,4.03 8.84,19.1 32.16,43.88 52.85,56.24 73.92,44.18 210.16,9.03 252.7,-70.29 l 0.18,-0.39 c 42.54,-79.32 10.79,-166.33 -70.79,-193.94 -22.87,-7.76 -49,-10.92 -73.04,-7.46 -0.69,0.07 -3.17,0.52 -3.73,0.66 -13.84,3.34 -33.86,17.58 -26.51,22.81 13.53,6.7 52.44,7.48 26.04,19.57 -26.37,12.09 -70.38,-3.44 -70.38,-3.44 -40.12,-13.59 -75.97,-33.16 -106.31,-57.65 0,0 -210.68,-186.922 -87.09,-329.16" /><path
         id="path152"
         style="fill:#1d4e9e;fill-opacity:1;fill-rule:nonzero;stroke:none"
         d="m 1569.56,1192.45 c 0,-31.31 -25.38,-56.68 -56.69,-56.68 h -39.12 c -31.31,0 -56.69,25.37 -56.69,56.68 v 374.13 c 0,31.31 25.38,56.69 56.69,56.69 h 39.12 c 31.31,0 56.69,-25.38 56.69,-56.69 v -374.13" /><path
         id="path154"
         style="fill:none;stroke:#ffffff;stroke-width:20;stroke-linecap:butt;stroke-linejoin:miter;stroke-miterlimit:4;stroke-dasharray:none;stroke-opacity:1"
         d="m 1569.56,1192.45 c 0,-31.31 -25.38,-56.68 -56.69,-56.68 h -39.12 c -31.31,0 -56.69,25.37 -56.69,56.68 v 374.13 c 0,31.31 25.38,56.69 56.69,56.69 h 39.12 c 31.31,0 56.69,-25.38 56.69,-56.69 z" /><path
         id="path156"
         style="fill:#1d4e9e;fill-opacity:1;fill-rule:nonzero;stroke:none"
         d="m 1541.93,2344.66 30.9,-6.32 123.43,99.64 -10.13,30.38 -135.63,-109.5 -8.57,-14.2" /><path
         id="path158"
         style="fill:#1d4e9e;fill-opacity:1;fill-rule:nonzero;stroke:none"
         d="m 1431.57,2256.64 -13.36,-4.58 -117.74,-95.06 24.51,-18.76 92.62,74.77 13.97,43.63" /><path
         id="path160"
         style="fill:#1d4e9e;fill-opacity:1;fill-rule:nonzero;stroke:none"
         d="m 1523.9,2369.73 7.65,-22.94 3.19,-0.66 15.76,12.73 100.9,167.36 h -35.04 l -91.56,-151.88 -0.9,-4.61" /><path
         id="path162"
         style="fill:#1d4e9e;fill-opacity:1;fill-rule:nonzero;stroke:none"
         d="m 1463.38,2216.91 -57.86,-41.62 0.82,2.57 -42.03,-69.72 23.97,-18.35 74.36,123.34 0.74,3.78" /><path
         id="path164"
         style="fill:#1d4e9e;fill-opacity:1;fill-rule:nonzero;stroke:none"
         d="m 1550.5,2358.86 -15.76,-12.73 7.19,-1.47 8.57,14.2" /><path
         id="path166"
         style="fill:#1d4e9e;fill-opacity:1;fill-rule:nonzero;stroke:none"
         d="m 1523.23,2371.73 1.57,2.61 29.76,151.88 h -30.58 l -19.34,-98.73 18.59,-55.76" /><path
         id="path168"
         style="fill:#1d4e9e;fill-opacity:1;fill-rule:nonzero;stroke:none"
         d="m 1487.85,2234.51 -21.75,-15.65 -3.46,-5.73 -30.71,-156.75 26.59,-20.36 33.57,171.4 -4.24,27.09" /><path
         id="path170"
         style="fill:#1d4e9e;fill-opacity:1;fill-rule:nonzero;stroke:none"
         d="m 1524.8,2374.34 -1.57,-2.61 0.67,-2 0.9,4.61" /><path
         id="path172"
         style="fill:#1d4e9e;fill-opacity:1;fill-rule:nonzero;stroke:none"
         d="m 1462.64,2213.13 3.46,5.73 -2.72,-1.95 -0.74,-3.78" /><path
         id="path174"
         style="fill:#1d4e9e;fill-opacity:1;fill-rule:nonzero;stroke:none"
         d="m 1512.48,2228.83 -14.23,9.98 -6.16,-31.39 28.58,-182.18 27.11,20.76 -26.05,166.08 -9.25,16.75" /><path
         id="path176"
         style="fill:#1d4e9e;fill-opacity:1;fill-rule:nonzero;stroke:none"
         d="m 1468.61,2370.3 19.36,57.01 -15.51,98.91 h -30.37 l 23.64,-150.71 2.88,-5.21" /><path
         id="path178"
         style="fill:#1d4e9e;fill-opacity:1;fill-rule:nonzero;stroke:none"
         d="m 1496.01,2240.38 -8.16,-5.87 4.24,-27.09 6.16,31.39 -2.24,1.57" /><path
         id="path180"
         style="fill:#1d4e9e;fill-opacity:1;fill-rule:nonzero;stroke:none"
         d="m 1457.5,2345.29 2.77,0.46 6.93,20.4 -1.47,9.36 -83.25,150.71 h -34.27 l 91.25,-165.19 18.04,-15.74" /><path
         id="path182"
         style="fill:#1d4e9e;fill-opacity:1;fill-rule:nonzero;stroke:none"
         d="m 1519.92,2223.61 1.81,-11.53 72.22,-130.75 24.09,18.44 -49.63,89.84 -48.49,34" /><path
         id="path184"
         style="fill:#1d4e9e;fill-opacity:1;fill-rule:nonzero;stroke:none"
         d="m 1521.73,2212.08 -1.81,11.53 -7.44,5.22 9.25,-16.75" /><path
         id="path186"
         style="fill:#1d4e9e;fill-opacity:1;fill-rule:nonzero;stroke:none"
         d="m 1465.73,2375.51 1.47,-9.36 1.41,4.15 -2.88,5.21" /><path
         id="path188"
         style="fill:#1d4e9e;fill-opacity:1;fill-rule:nonzero;stroke:none"
         d="m 1448.94,2343.87 -9.48,17.16 -130.25,113.56 -10.27,-30.84 120.23,-104.83 29.77,4.95" /><path
         id="path190"
         style="fill:#1d4e9e;fill-opacity:1;fill-rule:nonzero;stroke:none"
         d="m 1562.92,2251.05 17.12,-52.4 78.15,-68.14 24.31,18.61 -114.8,100.09 -4.78,1.84" /><path
         id="path192"
         style="fill:#1d4e9e;fill-opacity:1;fill-rule:nonzero;stroke:none"
         d="m 1439.46,2361.03 9.48,-17.16 8.56,1.42 -18.04,15.74" /><path
         id="path194"
         style="fill:#1d4e9e;fill-opacity:1;fill-rule:nonzero;stroke:none"
         d="m 1554.23,2277.66 7.63,-23.36 5.84,-5.09 163.31,-62.97 27.93,21.38 -180.45,69.58 -24.26,0.46" /><path
         id="path196"
         style="fill:#1d4e9e;fill-opacity:1;fill-rule:nonzero;stroke:none"
         d="m 1418.65,2338.83 -137.07,52.85 -9.49,-28.48 88.29,-34.05 58.27,9.68" /><path
         id="path198"
         style="fill:#1d4e9e;fill-opacity:1;fill-rule:nonzero;stroke:none"
         d="m 1567.7,2249.21 -5.84,5.09 1.06,-3.25 4.78,-1.84" /><path
         id="path200"
         style="fill:#1d4e9e;fill-opacity:1;fill-rule:nonzero;stroke:none"
         d="m 1560.29,2284.22 18.2,-7.02 172.45,-3.27 -10.07,30.2 -136.04,2.57 -44.54,-22.48" /><path
         id="path202"
         style="fill:#1d4e9e;fill-opacity:1;fill-rule:nonzero;stroke:none"
         d="m 1428.37,2287.26 -48.06,23.69 -124.85,2.37 -9.93,-29.82 162.89,-3.08 19.95,6.84" /><path
         id="path204"
         style="fill:#1d4e9e;fill-opacity:1;fill-rule:nonzero;stroke:none"
         d="m 1554.23,2277.66 24.26,-0.46 -18.2,7.02 -7.04,-3.56 0.98,-3" /><path
         id="path206"
         style="fill:#1d4e9e;fill-opacity:1;fill-rule:nonzero;stroke:none"
         d="m 1434.25,2265.02 4.75,14.82 -30.58,0.58 -185.06,-63.41 -0.26,-0.79 27.99,-21.42 167.12,57.26 16.04,12.96" /><path
         id="path208"
         style="fill:#1d4e9e;fill-opacity:1;fill-rule:nonzero;stroke:none"
         d="m 1633.64,2325.88 89.73,30.75 -9.48,28.46 -138.18,-47.35 57.93,-11.86" /><path
         id="path210"
         style="fill:#1d4e9e;fill-opacity:1;fill-rule:nonzero;stroke:none"
         d="m 1418.21,2252.06 13.36,4.58 2.68,8.38 -16.04,-12.96" /><path
         id="path212"
         style="fill:#1d4e9e;fill-opacity:1;fill-rule:nonzero;stroke:none"
         d="m 1428.37,2287.26 -19.95,-6.84 30.58,-0.58 0.6,1.88 -11.23,5.54" /><path
         id="path214"
         style="fill:#1d4e9e;fill-opacity:1;fill-rule:nonzero;stroke:none"
         d="m 1419.17,2338.92 -0.52,-0.09 1.11,-0.42 -0.59,0.51" /></g></g></svg>