<?xml version="1.0" encoding="UTF-8" standalone="no"?>
<!-- Created with Inkscape (http://www.inkscape.org/) -->

<svg
   xmlns:dc="http://purl.org/dc/elements/1.1/"
   xmlns:cc="http://creativecommons.org/ns#"
   xmlns:rdf="http://www.w3.org/1999/02/22-rdf-syntax-ns#"
   xmlns:svg="http://www.w3.org/2000/svg"
   xmlns="http://www.w3.org/2000/svg"
   xmlns:inkscape="http://www.inkscape.org/namespaces/inkscape"
   version="1.1"
   width="352.01251"
   height="352.01251"
   id="svg2"
   xml:space="preserve"><metadata
     id="metadata8"><rdf:RDF><cc:Work
         rdf:about=""><dc:format>image/svg+xml</dc:format><dc:type
           rdf:resource="http://purl.org/dc/dcmitype/StillImage" /></cc:Work></rdf:RDF></metadata><defs
     id="defs6" /><g
     transform="matrix(1.25,0,0,-1.25,0,352.0125)"
     id="g10"><g
       transform="scale(0.1,0.1)"
       id="g12"><path
         d="m 0,0 2816.15,0 0,2816.15 L 0,2816.15 0,0 z"
         inkscape:connector-curvature="0"
         id="path14"
         style="fill:#7b7979;fill-opacity:1;fill-rule:nonzero;stroke:none" /><path
         d="m 1503.83,1132.99 203.1,0 0,203.1 -203.1,-203.1"
         inkscape:connector-curvature="0"
         id="path16"
         style="fill:#d3d2d2;fill-opacity:1;fill-rule:nonzero;stroke:none" /><path
         d="m 1128.16,1807.83 0,-119.96 95.97,0 0,-559.31 -95.97,0 0,-119.94 578.82,0 0,124.44 -292.41,0 0,554.81 106.46,0 0,119.96 -392.87,0"
         inkscape:connector-curvature="0"
         id="path18"
         style="fill:#ffffff;fill-opacity:1;fill-rule:nonzero;stroke:none" /><path
         d="m 868.551,1039.23 c 71.484,57.74 87.012,121.6 86.961,218.14 l -0.094,428.19 100.572,0.1 0,119.95 -295.517,-0.09 0,-119.96 63.086,0.1 0,-448.54 c 0,-62.91 -51.231,-113.74 -114.129,-113.79 -82.207,-0.08 -113.879,50.98 -113.879,113.89 l 0,448.53 70.469,-0.09 1.007,119.95 -350.871,0 0.461,-119.95 88.203,0 0.379,-418.37 c 0,-86.63 1.602,-136.53 47.442,-199.98 41.172,-56.99 112.824,-84.798 227.265,-84.521 80.606,0.211 143.449,19.941 188.645,56.441"
         inkscape:connector-curvature="0"
         id="path20"
         style="fill:#ffffff;fill-opacity:1;fill-rule:nonzero;stroke:none" /><path
         d="m 2372.88,1410.05 c 54.84,-36.9 92.21,-102.18 92.58,-178.77 0.62,-120.07 -120.63,-222.77 -232.46,-222.63 l -450.47,-0.03 -0.1,124.44 91.49,0 0,554.81 -95.98,0 0,119.96 455.86,0 c 111.91,0 202.75,-87.39 202.75,-196.53 0,-49.46 -23.26,-107.24 -63.96,-143.95 -26.12,-24.21 -53.89,-33.53 -53.89,-33.53 0,0 24.45,-4.43 54.18,-23.77 z m -237.77,73.98 c 65.04,-0.18 101.4,38.44 101.58,100.28 0.18,63.73 -41.04,103.47 -101.78,103.66 l -66.05,-0.1 0,-203.93 66.25,0.09 z m 9.94,-351.06 c 81.42,0.39 118.42,40.59 118.63,111.71 0.22,73.28 -49.1,123.68 -118.94,123.91 l -76,-0.1 0.12,-235.52 76.19,0"
         inkscape:connector-curvature="0"
         id="path22"
         style="fill:#ffffff;fill-opacity:1;fill-rule:nonzero;stroke:none" /></g></g></svg>